<?xml version="1.0" encoding="utf-8"?>
<!-- Svg Vector Icons : http://www.onlinewebfonts.com/icon -->
<!DOCTYPE svg PUBLIC "-//W3C//DTD SVG 1.1//EN" "http://www.w3.org/Graphics/SVG/1.1/DTD/svg11.dtd">
<svg version="1.1" xmlns="http://www.w3.org/2000/svg" xmlns:xlink="http://www.w3.org/1999/xlink" x="0px" y="0px" viewBox="0 0 1000 1000" enable-background="new 0 0 1000 1000" xml:space="preserve">
<metadata> Svg Vector Icons : http://www.onlinewebfonts.com/icon </metadata>
<g><g transform="translate(0.000000,511.000000) scale(0.100000,-0.100000)"><path d="M4540.4,4978.6c-827.5-144.1-1543.7-679-1921.4-1427.9c-218.3-436.7-303.5-882.1-270.7-1401.8C2418.1,1103,3151.7,168.5,4162.7-163.3c388.6-126.6,879.9-163.8,1268.6-96.1c1559,270.7,2537.1,1807.9,2120.1,3329.7c-272.9,989.1-1115.7,1744.6-2133.2,1910.5C5171.4,5020.1,4774,5020.1,4540.4,4978.6z"/><path d="M2512-1091.3C1490.2-1276.9,677.9-2041.1,409.4-3076c-54.6-209.6-56.8-246.7-65.5-965.1L332.9-4790h4668.2h4666l-13.1,705.2c-10.9,604.8-17.5,733.6-59,921.4c-198.7,925.7-864.6,1674.7-1759.8,1973.8c-314.4,104.8-528.4,133.2-1021.9,133.2l-438.9-2.2l-69.9-146.3c-183.4-377.7-543.7-672.5-956.3-779.5c-174.7-45.9-506.6-45.9-700.9-2.2c-399.6,93.9-777.3,397.4-962.9,770.8l-78.6,159.4l-460.7-2.2C2850.4-1058.6,2623.4-1071.6,2512-1091.3z"/></g></g>
</svg>