<svg xmlns="http://www.w3.org/2000/svg" viewBox="0 0 214268 333333" shape-rendering="geometricPrecision" text-rendering="geometricPrecision" image-rendering="optimizeQuality" fill-rule="evenodd" clip-rule="evenodd"><path d="M75946 157874c-117-350-234-817-292-1226-643-5548-1285-11680-1811-16994-759-7767-1635-16703-2219-23009-409-4263-1752-8293-3738-11330-1343-1928-2803-3388-4438-4089-1343-525-2920-584-4614 59-2278 876-4847 2744-7709 5957-2511 2861-4497 6716-6132 10804-2336 5957-3680 12322-4263 16644-58 292-58 526-175 759l-15826 89761c-233 1168-701 2219-1402 3037-5315 6833-8643 12731-9636 17462-701 3504 0 6307 2336 8526l58167 58167c3679 3563 8001 5781 13140 6716 5606 1051 12147 467 19681-1577 117 0 292-59 408-59 2861-759 6599-1693 10162-2570 15593-3796 29200-7124 41814-18571l16235-16936c175-292 409-526 642-759s1810-1810 3971-3854c11096-10863 24820-24236 16469-35974l-6482-6483c-3154 3037-6483 6015-9694 8877-2920 2569-5665 4964-8176 7476-2687 2686-7009 2686-9694 0-2687-2687-2687-7008 0-9695 2511-2511 5606-5256 8819-8118 10979-9694 23593-20790 16819-30484l-6424-6424c-350-350-643-759-934-1168-3680 3796-7767 7417-11739 10920-2920 2570-5665 4964-8176 7475-2686 2687-7008 2687-9694 0-2686-2686-2686-7008 0-9694 2511-2511 5607-5256 8819-8117 10979-9695 23594-20791 16819-30485l-6424-6424c-467-467-817-934-1109-1460l-18863 18863c-2686 2687-7008 2687-9694 0-2686-2686-2686-7008 0-9694l50633-50633c8469-8468 10395-17286 8176-23944-818-2453-2160-4613-3854-6307-1693-1694-3854-3037-6307-3854-6600-2161-15360-175-24061 8527l-88709 88709c-2687 2687-7008 2687-9694 0-2687-2687-2687-7008 0-9694l8993-8993-117-117zM110495 0l5003 54093-15206 1377-5003-54093L110495 1zm71119 24330l-35201 42375-11733-9758 35201-42375 11733 9758zM43390 32124l41864 34776-9758 11733-41864-34776 9757-11733zm135457 113486c526 291 993 642 1460 1109l6716 6716c350 350 701 817 993 1226 7533 10336 6365 19564 1226 27974 935 350 1811 875 2512 1577l6716 6716c350 351 701 818 993 1227 8118 11154 6074 20907 0 29784 292 175 526 409 818 701l6716 6716c350 350 701 817 993 1226 15593 21316-2979 39420-17929 54020l-3854 3855-16644 17461-526 526c-15242 13841-30368 17520-47830 21783-2920 701-5899 1460-9986 2511-117 0-176 58-292 58-9461 2570-18046 3212-25754 1810-7826-1401-14600-4906-20265-10454L6802 264044c-5898-5665-7884-12673-6249-20966 1285-6658 5139-14017 11213-21958l15534-87951v-350c701-5023 2278-12439 5022-19622 2103-5373 4906-10629 8585-14892 4439-5022 8819-8118 13140-9753 5314-2044 10395-1752 14892 175 4205 1752 7767 4964 10454 9052 3270 4906 5431 11155 6015 17696 467 5373 1402 14249 2278 22951l701 7241 67335-67335c12907-12907 26923-15476 38077-11797 4497 1460 8468 3913 11738 7183s5723 7241 7183 11738c3679 11154 1168 25346-11505 38019l-22309 22309-58-175z" fill-rule="nonzero"/></svg>