<svg xmlns="http://www.w3.org/2000/svg" xmlns:xlink="http://www.w3.org/1999/xlink" viewBox="0 0 145.49 256"><defs><style>.cls-1{isolation:isolate;}.cls-2{fill:#1b456b;}.cls-3{fill:#64c4f1;}.cls-4{fill:#659def;}.cls-5{fill:#519fc4;}.cls-6{fill:none;stroke:#1b456b;stroke-linecap:round;stroke-miterlimit:10;stroke-width:6px;}.cls-7{fill:#4f8bd3;}.cls-8{opacity:0.28;mix-blend-mode:hard-light;fill:url(#linear-gradient);}</style><linearGradient id="linear-gradient" x1="73.53" y1="0.63" x2="73.53" y2="255.55" gradientUnits="userSpaceOnUse"><stop offset="0" stop-color="aqua"/><stop offset="0.78" stop-color="#0038ff"/><stop offset="1" stop-color="blue"/></linearGradient></defs><title>Logo</title><g class="cls-1"><g id="Layer_2" data-name="Layer 2"><g id="Layer_4" data-name="Layer 4"><rect class="cls-2" x="-54.47" y="57.6" width="256" height="140.8" rx="20.38" transform="translate(201.53 54.47) rotate(90)"/><rect class="cls-3" x="7.82" y="4.71" width="131.41" height="246.58" rx="15.67"/><rect class="cls-3" x="15.82" y="12.71" width="115.41" height="230.58" rx="7.67"/><rect class="cls-2" x="-21.49" y="70.12" width="190.04" height="118.9" transform="translate(203.1 56.04) rotate(90)"/><rect class="cls-4" x="18.77" y="39.26" width="109.51" height="180.61"/><rect class="cls-2" x="1.56" y="79.31" width="3.13" height="20.42" rx="0.78"/><rect class="cls-2" x="1.56" y="54.18" width="3.13" height="20.42" rx="0.78"/><rect class="cls-2" x="142.36" y="65.96" width="3.13" height="20.42" rx="0.78"/><rect class="cls-2" x="56.32" y="18.06" width="34.42" height="3.14" rx="1.57"/><ellipse class="cls-2" cx="48.5" cy="19.63" rx="2.35" ry="2.36"/><ellipse class="cls-2" cx="73.53" cy="237.94" rx="10.17" ry="10.21"/><ellipse class="cls-5" cx="73.53" cy="237.94" rx="7.82" ry="7.85"/><path class="cls-6" d="M63.36,136.64a10.17,10.17,0,1,0,20.34,0"/><ellipse class="cls-2" cx="96.99" cy="119.36" rx="7.04" ry="7.07"/><ellipse class="cls-2" cx="50.06" cy="119.36" rx="7.04" ry="7.07"/><ellipse class="cls-7" cx="38.33" cy="136.64" rx="7.82" ry="7.85"/><ellipse class="cls-7" cx="108.73" cy="136.64" rx="7.82" ry="7.85"/><line class="cls-2" y1="54.24" x2="0.78" y2="54.24"/><path class="cls-8" d="M3.13,235.62V20.38A20.37,20.37,0,0,1,23.51,0h100a20.38,20.38,0,0,1,20.38,20.38V235.62A20.38,20.38,0,0,1,123.55,256h-100A20.37,20.37,0,0,1,3.13,235.62Zm0-181.44H2.35a.8.8,0,0,0-.79.79V73.82a.79.79,0,0,0,.79.78h.78m0,4.71H2.35a.8.8,0,0,0-.79.79V98.94a.79.79,0,0,0,.79.79h.78m140.8-13.35h.78a.78.78,0,0,0,.78-.78V66.75a.79.79,0,0,0-.78-.79h-.78"/></g></g></g></svg>