<svg xmlns="http://www.w3.org/2000/svg" viewBox="0 0 453.61 283.89"><defs><style>.cls-1{fill:#1b456b;}.cls-2{fill:#64c4f1;}.cls-3{fill:#659def;}.cls-4{fill:#519fc4;}</style></defs><title>phone asset</title><g id="Layer_2" data-name="Layer 2"><g id="Layer_1-2" data-name="Layer 1"><path class="cls-1" d="M8.38,215.05C-4,207.89-2.47,195.32,11.86,187l274-158.19c14.34-8.28,36.1-9.18,48.52-2l110.85,64c12.42,7.17,10.85,19.73-3.48,28L167.75,277c-14.34,8.28-36.1,9.18-48.52,2Z"/><path class="cls-1" d="M8.38,193.05C-4,185.89-2.47,173.32,11.86,165l274-158.19c14.34-8.28,36.1-9.18,48.52-2l110.85,64c12.42,7.17,10.85,19.73-3.48,28L167.75,255c-14.34,8.28-36.1,9.18-48.52,2Z"/><path class="cls-2" d="M125.23,253.59l-110.85-64c-9.53-5.5-8.32-15.2,2.68-21.55l274-158.19c11-6.35,27.79-7,37.32-1.55l110.85,64c9.53,5.5,8.32,15.2-2.68,21.55L162.55,252C151.55,258.39,134.76,259.09,125.23,253.59Z"/><path class="cls-2" d="M435.23,79.23l-110.85-64c-2.9-1.68-7.35-2.64-12.2-2.64a35.27,35.27,0,0,0-17.12,4.19L21.06,175c-3.72,2.15-5.11,4.37-5.11,5.27,0,.51.75,1.45,2.43,2.42l110.85,64c2.91,1.68,7.35,2.64,12.2,2.64a35.16,35.16,0,0,0,17.12-4.19l274-158.19c3.72-2.15,5.11-4.37,5.11-5.27C437.66,81.14,436.91,80.2,435.23,79.23Z"/><polygon class="cls-1" points="37.99 163.96 279.99 24.24 411.62 100.24 169.62 239.96 37.99 163.96"/><polygon class="cls-3" points="170.43 233.5 49.18 163.5 279.18 30.7 400.43 100.7 170.43 233.5"/><path class="cls-1" d="M184,64.66l1.73,1a2.07,2.07,0,0,0,1.87-.08l24-13.85c.55-.32.61-.8.13-1.08l-1.73-1a2.1,2.1,0,0,0-1.87.08l-24,13.85C183.58,63.9,183.52,64.39,184,64.66Z"/><path class="cls-1" d="M216,46.19l1.73,1a2.1,2.1,0,0,0,1.87-.08l24-13.86c.55-.32.61-.8.13-1.07l-1.73-1a2.06,2.06,0,0,0-1.87.07l-24,13.86C215.58,45.43,215.52,45.91,216,46.19Z"/><path class="cls-1" d="M356.88,144.85l1.73,1a2.1,2.1,0,0,0,1.87-.08l24-13.86c.55-.31.61-.8.13-1.07l-1.73-1a2.08,2.08,0,0,0-1.86.07l-24,13.86C356.47,144.09,356.41,144.57,356.88,144.85Z"/><path class="cls-1" d="M380.13,62.43l-34.65-20c-1-.55-.83-1.52.27-2.16h0a4.17,4.17,0,0,1,3.73-.15l34.65,20c.95.55.83,1.52-.27,2.15h0A4.15,4.15,0,0,1,380.13,62.43Z"/><ellipse class="cls-1" cx="337.09" cy="35.27" rx="3.99" ry="2.26" transform="translate(-1.79 41.04) rotate(-6.95)"/><ellipse class="cls-1" cx="86.81" cy="211.78" rx="17.28" ry="9.78" transform="translate(-24.98 12.06) rotate(-6.95)"/><ellipse class="cls-4" cx="86.81" cy="211.78" rx="13.3" ry="7.52" transform="translate(-24.98 12.06) rotate(-6.95)"/><line class="cls-1" x1="239.33" y1="29.71" x2="240.2" y2="30.21"/><rect class="cls-1" x="0.01" y="180.95" width="6.6" height="22"/><rect class="cls-1" x="447.01" y="81.95" width="6.6" height="22"/></g></g></svg>